<svg xmlns="http://www.w3.org/2000/svg">

  <symbol id="icon-telegram" role="img" viewBox="0 0 24 24">
    <title>Telegram</title>
    <path d="M11.944 0A12 12 0 0 0 0 12a12 12 0 0 0 12 12 12 12 0 0 0 12-12A12 12 0 0 0 12 0a12 12 0 0 0-.056 0zm4.962 7.224c.1-.002.321.023.465.14a.506.506 0 0 1 .171.325c.016.093.036.306.02.472-.18 1.898-.962 6.502-1.36 8.627-.168.9-.499 1.201-.82 1.23-.696.065-1.225-.46-1.9-.902-1.056-.693-1.653-1.124-2.678-1.8-1.185-.78-.417-1.21.258-1.91.177-.184 3.247-2.977 3.307-3.23.007-.032.014-.15-.056-.212s-.174-.041-.249-.024c-.106.024-1.793 1.14-5.061 3.345-.48.33-.913.49-1.302.48-.428-.008-1.252-.241-1.865-.44-.752-.245-1.349-.374-1.297-.789.027-.216.325-.437.893-.663 3.498-1.524 5.83-2.529 6.998-3.014 3.332-1.386 4.025-1.627 4.476-1.635z"/>
  </symbol> 

 
  <symbol id="icon-linkedin" role="img" viewBox="0 0 24 24">
    <title>LinkedIn</title>
    <path d="M20.447 20.452h-3.554v-5.569c0-1.328-.024-3.037-1.852-3.037-1.853 0-2.136 1.447-2.136 2.939v5.667h-3.554v-11.45h3.414v1.561h.049c.476-.899 1.637-1.848 3.369-1.848 3.602 0 4.267 2.37 4.267 5.451v6.286zM5.337 8.433c-1.144 0-2.067-.926-2.067-2.066 0-1.142.923-2.065 2.067-2.065 1.141 0 2.066.923 2.066 2.065 0 1.14-.925 2.066-2.066 2.066zm1.777 12.019h-3.554v-11.45h3.554v11.45z"/>
  </symbol>

 <symbol id="icon-instagram" role="img" viewBox="0 0 24 24">
     <title>Instagram</title>
     <path d="M7.0301.084c-1.2768.0602-2.1487.264-2.911.5634-.7888.3075-1.4575.72-2.1228 1.3877-.6652.6677-1.075 1.3368-1.3802 2.127-.2954.7638-.4956 1.6365-.552 2.914-.0564 1.2775-.0689 1.6882-.0626 4.947.0062 3.2586.0206 3.6671.0825 4.9473.061 1.2765.264 2.1482.5635 2.9107.308.7889.72 1.4573 1.388 2.1228.6679.6655 1.3365 1.0743 2.1285 1.38.7632.295 1.6361.4961 2.9134.552 1.2773.056 1.6884.069 4.9462.0627 3.2578-.0062 3.668-.0207 4.9478-.0814 1.28-.0607 2.147-.2652 2.9098-.5633.7889-.3086 1.4578-.72 2.1228-1.3881.665-.6682 1.0745-1.3378 1.3795-2.1284.2957-.7632.4966-1.636.552-2.9124.056-1.2809.0692-1.6898.063-4.948-.0063-3.2583-.021-3.6668-.0817-4.9465-.0607-1.2797-.264-2.1487-.5633-2.9117-.3084-.7889-.72-1.4568-1.3876-2.1228C21.2982 1.33 20.628.9208 19.8378.6165 19.074.321 18.2017.1197 16.9244.0645 15.6471.0093 15.236-.005 11.977.0014 8.718.0076 8.31.0215 7.0301.0839m.1402 21.6932c-1.17-.0509-1.8053-.2453-2.2287-.408-.5606-.216-.96-.4771-1.3819-.895-.422-.4178-.6811-.8186-.9-1.378-.1644-.4234-.3624-1.058-.4171-2.228-.0595-1.2645-.072-1.6442-.079-4.848-.007-3.2037.0053-3.583.0607-4.848.05-1.169.2456-1.805.408-2.2282.216-.5613.4762-.96.895-1.3816.4188-.4217.8184-.6814 1.3783-.9003.423-.1651 1.0575-.3614 2.227-.4171 1.2655-.06 1.6447-.072 4.848-.079 3.2033-.007 3.5835.005 4.8495.0608 1.169.0508 1.8053.2445 2.228.408.5608.216.96.4754 1.3816.895.4217.4194.6816.8176.9005 1.3787.1653.4217.3617 1.056.4169 2.2263.0602 1.2655.0739 1.645.0796 4.848.0058 3.203-.0055 3.5834-.061 4.848-.051 1.17-.245 1.8055-.408 2.2294-.216.5604-.4763.96-.8954 1.3814-.419.4215-.8181.6811-1.3783.9-.4224.1649-1.0577.3617-2.2262.4174-1.2656.0595-1.6448.072-4.8493.079-3.2045.007-3.5825-.006-4.848-.0608M16.953 5.5864A1.44 1.44 0 1 0 18.39 4.144a1.44 1.44 0 0 0-1.437 1.4424M5.8385 12.012c.0067 3.4032 2.7706 6.1557 6.173 6.1493 3.4026-.0065 6.157-2.7701 6.1506-6.1733-.0065-3.4032-2.771-6.1565-6.174-6.1498-3.403.0067-6.156 2.771-6.1496 6.1738M8 12.0077a4 4 0 1 1 4.008 3.9921A3.9996 3.9996 0 0 1 8 12.0077"/>
     </symbol>

<symbol id="icon-nav-open" viewBox="0 0 24 24">
  <title>Menu with Arrows</title>
  <path 
    d="M20 8h-9 M20 12H4 M4 12l3-3 M4 12l3 3 M20 16h-9"  stroke="currentColor"  stroke-width="2" stroke-linecap="round"  stroke-linejoin="round"/>
</symbol>
<symbol id="icon-nav" viewBox="0 0 24 24">
  <title>Menu with Arrows</title>
  <path  d="M4 8h9 M4 12h16 M20 12l-3-3 M20 12l-3 3 M4 16h9"  stroke="currentColor"  stroke-width="2"  stroke-linecap="round"  stroke-linejoin="round"  />
</symbol>
<symbol id="icon-hand-up" viewBox="0 0 1200 1200">
  <title>Hand Up</title>
  <path 
    d="M227.863,1200h415.508c43.973-2.192,75.725-37.788,76.253-76.898V936.995 
       c40.854-53.196,97.553-90.897,138.61-142.165c14.432-18.094,30.479-32.095,48.142-42.003 
       c63.281-32.214,136.955-12.695,187.399-58.481c39.482-92.008-15.751-202.231-102.423-233.279 
       c-70.78-24.404-141.366-8.051-203.878,22.294c0.182-109.856-0.708-219.71-1.292-329.564 
       C779.505,64.363,719.291,0.594,633.679,0c-86.275,0.244-149.017,74.623-150.565,153.796v129.241 
       c-25.417,4.308-48.465,12.708-69.144,25.202c-53.145-7.24-105.247,9.327-142.811,41.356 
       c-306.751,17.576-124.761,419.443-120.194,569.951v203.555 
       C153.061,1167.383,188.555,1199.471,227.863,1200z 
       M227.863,922.778c-2.591-120.425-184.658-531.908,76.252-492.406 
       c23.47-43.546,86.285-60.301,126.009-33.603c40.005-40.566,90.265-52.118,129.887-12.925 
       c0-38.771,0.216-77.113,0.646-115.024s0.646-76.252,0.646-115.024 
       c0.933-44.37,33.487-75.122,72.375-75.605c45.975,1.014,75.136,35.914,75.605,75.605 
       c0.008,150.385,1.276,298.632,1.292,438.126c100.763-12.555,237.585-132.769,316.963-10.017 
       c9.652,19.652,13.749,35.367,10.017,55.896c-1.724,3.446-3.446,5.385-5.17,5.816 
       c-1.723,0.431-4.523,1.076-8.4,1.938c-79.87,13.044-159.73,25.221-212.601,87.237 
       c-52.343,68.263-134.749,108.514-168.013,186.752v3.231H227.863z"
    fill="currentColor"
  />
</symbol> 

<symbol id="icon-github" role="img" viewBox="0 0 24 24">
      <title>GitHub</title>
      <path d="M12 .297c-6.63 0-12 5.373-12 12 0 5.303 3.438 9.8 8.205 11.385.6.113.82-.258.82-.577 0-.285-.01-1.04-.015-2.04-3.338.724-4.042-1.61-4.042-1.61C4.422 18.07 3.633 17.7 3.633 17.7c-1.087-.744.084-.729.084-.729 1.205.084 1.838 1.236 1.838 1.236 1.07 1.835 2.809 1.305 3.495.998.108-.776.417-1.305.76-1.605-2.665-.3-5.466-1.332-5.466-5.93 0-1.31.465-2.38 1.235-3.22-.135-.303-.54-1.523.105-3.176 0 0 1.005-.322 3.3 1.23.96-.267 1.98-.399 3-.405 1.02.006 2.04.138 3 .405 2.28-1.552 3.285-1.23 3.285-1.23.645 1.653.24 2.873.12 3.176.765.84 1.23 1.91 1.23 3.22 0 4.61-2.805 5.625-5.475 5.92.42.36.81 1.096.81 2.22 0 1.606-.015 2.896-.015 3.286 0 .315.21.69.825.57C20.565 22.092 24 17.592 24 12.297c0-6.627-5.373-12-12-12"/>
   </symbol>



<symbol id="icon-sun" viewBox="0 0 24 24">
  <title>Sun</title>
  <path 
    d="M12 3V4M12 20V21M4 12H3M6.314 6.314L5.5 5.5M17.686 6.314L18.5 5.5M6.314 17.69L5.5 18.5M17.686 17.69L18.5 18.5M21 12H20M16 12C16 14.209 14.209 16 12 16C9.791 16 8 14.209 8 12C8 9.791 9.791 8 12 8C14.209 8 16 9.791 16 12Z" 
    stroke="currentColor" 
    stroke-width="2" 
    stroke-linecap="round" 
    stroke-linejoin="round"
    fill="none"
  />
</symbol>
<symbol id="icon-moon" viewBox="0 0 32 32">
  <title>Moon</title>
  <path 
    d="M20.23 30C15.29 29.64 8.05 23.73 8.05 16C8.05 8.27 15.13 2.43 20.23 2C21.76 1.87 20.95 1.87 22.37 2C19.04 4.10 15.22 9.96 15.22 16C15.22 22.04 18 27.62 22.37 30C21.02 30.12 21.7 30.11 20.23 30ZM17.26 16C17.26 9.10 21.73 3.24 28 1C26.24 0.36 24.35 0 22.37 0C13.33 0 6 7.16 6 16C6 24.84 13.33 32 22.37 32C24.35 32 26.24 31.64 28 31.01C21.73 28.76 17.26 22.90 17.26 16Z" 
    fill="currentColor"
  />
</symbol>

<symbol id="icon-mail" viewBox="0 0 24 24">
  <title>Mail</title>
  <path 
    fill-rule="evenodd" 
    clip-rule="evenodd" 
    d="M3.75 5.25L3 6V18L3.75 18.75H20.25L21 18V6L20.25 5.25H3.75ZM4.5 7.6955V17.25H19.5V7.69525L11.9999 14.5136L4.5 7.6955ZM18.3099 6.75H5.68986L11.9999 12.4864L18.3099 6.75Z" 
    fill="currentColor"
  />
</symbol>




     

</svg>

