<svg xmlns="http://www.w3.org/2000/svg">

 <symbol id="icon-js" viewBox="0 0 24 24">
  <title>JS</title>
  <path 
    d="M13 6C13 5.44772 13.4477 5 14 5H17C17.5523 5 18 5.44772 18 6C18 6.55228 17.5523 7 17 7H15.2C15.0895 7 15 7.08954 15 7.2V8.8C15 8.91046 15.0895 9 15.2 9H17C17.5523 9 18 9.44772 18 10V13C18 13.2652 17.8946 13.5196 17.7071 13.7071L14.7071 16.7071C14.3166 17.0976 13.6834 17.0976 13.2929 16.7071C12.9024 16.3166 12.9024 15.6834 13.2929 15.2929L15.9414 12.6444C15.9789 12.6069 16 12.556 16 12.5029V11.2C16 11.0895 15.9105 11 15.8 11H14C13.4477 11 13 10.5523 13 10V6Z"
    fill="currentColor"
  />
  <path 
    d="M11 6C11 5.44772 10.5523 5 10 5C9.44771 5 9 5.44772 9 6V13.1029C9 13.2811 8.78457 13.3704 8.65858 13.2444L8.05858 12.6444C8.02107 12.6069 8 12.556 8 12.5029V12C8 11.4477 7.55228 11 7 11C6.44771 11 6 11.4477 6 12V13C6 13.2652 6.10536 13.5196 6.29289 13.7071L9.29289 16.7071C9.57889 16.9931 10.009 17.0787 10.3827 16.9239C10.7564 16.7691 11 16.4045 11 16V6Z"
    fill="currentColor"
  />
  <path 
    fill-rule="evenodd" 
    clip-rule="evenodd"
    d="M1.33617 4.42426C1.07798 2.61696 2.48037 1 4.30602 1H19.694C21.5196 1 22.922 2.61696 22.6638 4.42426L21.0948 15.4074C20.9933 16.1178 20.6405 16.7683 20.1005 17.2409L13.9755 22.6002C12.8444 23.5899 11.1556 23.5899 10.0245 22.6002L3.89952 17.2409C3.35945 16.7683 3.00667 16.1178 2.90519 15.4074L1.33617 4.42426ZM4.30602 3C3.69747 3 3.23001 3.53899 3.31607 4.14142L4.88509 15.1245C4.91892 15.3613 5.03651 15.5782 5.21653 15.7357L11.3415 21.095C11.7185 21.4249 12.2815 21.4249 12.6585 21.095L18.7835 15.7357C18.9635 15.5782 19.0811 15.3613 19.1149 15.1245L20.6839 4.14142C20.77 3.53899 20.3025 3 19.694 3H4.30602Z"
    fill="currentColor"
  />
</symbol>

<symbol id="icon-html" viewBox="0 0 24 24">
  <title>HTML</title>
  <path
    d="M7.99999 5C7.69206 5 7.4013 5.14187 7.21179 5.38459C7.02228 5.6273 6.95517 5.94379 7.02985 6.24254L8.02985 10.2425C8.14114 10.6877 8.54113 11 8.99999 11H13.8C13.9105 11 14 11.0895 14 11.2V13.5029C14 13.556 13.9789 13.6069 13.9414 13.6444L12.1414 15.4444C12.0633 15.5225 11.9367 15.5225 11.8586 15.4444L9.7071 13.2929C9.31658 12.9024 8.68341 12.9024 8.29289 13.2929C7.90236 13.6834 7.90236 14.3166 8.29289 14.7071L11.2929 17.7071C11.6834 18.0976 12.3166 18.0976 12.7071 17.7071L15.7071 14.7071C15.8946 14.5196 16 14.2652 16 14V10C16 9.44772 15.5523 9 15 9H9.93693C9.84515 9 9.76516 8.93754 9.7429 8.84851L9.3429 7.24851C9.31134 7.12228 9.40681 7 9.53693 7H16C16.5523 7 17 6.55228 17 6C17 5.44772 16.5523 5 16 5H7.99999Z"
    fill="currentColor"
  />
  <path
    fill-rule="evenodd"
    clip-rule="evenodd"
    d="M4.30601 1C2.48037 1 1.07798 2.61696 1.33617 4.42426L2.90518 15.4074C3.00667 16.1178 3.35945 16.7683 3.89952 17.2409L10.0245 22.6002C11.1556 23.5899 12.8444 23.5899 13.9755 22.6002L20.1005 17.2409C20.6405 16.7683 20.9933 16.1178 21.0948 15.4074L22.6638 4.42426C22.922 2.61696 21.5196 1 19.694 1H4.30601ZM3.31606 4.14142C3.23 3.53899 3.69746 3 4.30601 3H19.694C20.3025 3 20.77 3.53899 20.6839 4.14142L19.1149 15.1245C19.0811 15.3613 18.9635 15.5782 18.7835 15.7357L12.6585 21.095C12.2815 21.4249 11.7185 21.4249 11.3415 21.095L5.21653 15.7357C5.0365 15.5782 4.91891 15.3613 4.88508 15.1245L3.31606 4.14142Z"
    fill="currentColor"
  />
</symbol>

<symbol id="icon-css" viewBox="0 0 24 24">
  <title>CSS</title>
  <path
    d="M8 5C7.44772 5 7 5.44772 7 6C7 6.55228 7.44772 7 8 7H12.2344L8.50386 9.13176C8.11017 9.35672 7.91712 9.81842 8.0335 10.2567C8.14988 10.6949 8.54657 11 9 11H13.8C13.9105 11 14 11.0895 14 11.2V13.5029C14 13.556 13.9789 13.6069 13.9414 13.6444L12.1414 15.4444C12.0633 15.5225 11.9367 15.5225 11.8586 15.4444L9.70711 13.2929C9.31658 12.9024 8.68342 12.9024 8.2929 13.2929C7.90237 13.6834 7.90237 14.3166 8.2929 14.7071L11.2929 17.7071C11.6834 18.0976 12.3166 18.0976 12.7071 17.7071L15.7071 14.7071C15.8946 14.5196 16 14.2652 16 14V10C16 9.44772 15.5523 9 15 9H12.7656L16.4961 6.86824C16.8898 6.64328 17.0829 6.18158 16.9665 5.74333C16.8501 5.30509 16.4534 5 16 5H8Z"
    fill="currentColor"
  />
  <path
    fill-rule="evenodd"
    clip-rule="evenodd"
    d="M4.30602 1C2.48038 1 1.07799 2.61696 1.33617 4.42426L2.90519 15.4074C3.00668 16.1178 3.35946 16.7683 3.89953 17.2409L10.0245 22.6002C11.1556 23.5899 12.8444 23.5899 13.9755 22.6002L20.1005 17.2409C20.6405 16.7683 20.9933 16.1178 21.0948 15.4074L22.6638 4.42426C22.922 2.61696 21.5196 1 19.694 1H4.30602ZM3.31607 4.14142C3.23001 3.53899 3.69747 3 4.30602 3H19.694C20.3025 3 20.77 3.53899 20.6839 4.14142L19.1149 15.1245C19.0811 15.3613 18.9635 15.5782 18.7835 15.7357L12.6585 21.095C12.2815 21.4249 11.7185 21.4249 11.3415 21.095L5.21653 15.7357C5.03651 15.5782 4.91892 15.3613 4.88509 15.1245L3.31607 4.14142Z"
    fill="currentColor"
  />
</symbol>

<symbol id="icon-csharp" viewBox="0 0 512 512">
  <path 
    d="M233.274,286.089l89.802,27.145c-6.035,25.188-15.535,46.223-28.5,63.107 
    c-12.975,16.894-29.071,29.638-48.297,38.233c-19.229,8.596-43.697,12.894-73.412,12.894
    c-36.038,0-65.482-5.238-88.33-15.711c-22.852-10.477-42.563-28.896-59.155-55.271
    C8.794,330.114,0.5,296.354,0.5,255.208c0-54.855,14.594-97.016,43.769-126.479
    c29.18-29.461,70.464-44.197,123.855-44.197c41.776,0,74.614,8.451,98.51,25.336
    c23.91,16.892,41.659,42.834,53.273,77.816l-90.481,20.131c-3.164-10.098-6.485-17.492-9.95-22.168
    c-5.733-7.839-12.745-13.871-21.043-18.095c-8.294-4.22-17.564-6.337-27.82-6.337
    c-23.23,0-41.024,9.343-53.391,28.021c-9.342,13.861-14.018,35.626-14.018,65.294
    c0,36.756,5.576,61.948,16.732,75.584c11.16,13.627,26.848,20.439,47.059,20.439
    c19.599,0,34.413-5.503,44.449-16.516C221.474,323.04,228.751,307.046,233.274,286.089z 
    M485.345,239.259l-6.854,34.292H511.5v37.262h-40.452l-9.5,47.522h-38.41l9.527-47.522
    h-29.769l-9.595,47.522h-38.14l9.527-47.522h-18.572v-37.262h26.047l6.876-34.292h-32.923
    v-37.262h40.398l9.688-48.332h38.409l-9.752,48.332h29.625l9.694-48.332h38.273l-9.657,48.332
    H511.5v37.262H485.345z M447.017,239.259h-29.68l-6.921,34.292h29.724L447.017,239.259z"
    fill="currentColor"
  />
</symbol>





<symbol id="icon-restfullapi" viewBox="0 0 1024 1024">
  <title>RESTFULL API</title>
  <path 
    d="M148.2 674.6zm106.7-92.3c-25 25-38.7 58.1-38.7 93.4s13.8 68.5 38.7 93.4c25 25 58.1 38.7 93.4 38.7 35.3 0 68.5-13.8 93.4-38.7
       l59.4-59.4-186.8-186.8-59.4 59.4zm420.8-366.1c-35.3 0-68.5 13.8-93.4 38.7l-59.4 59.4 186.8 186.8 59.4-59.4c24.9-25 38.7-58.1 38.7-93.4
       s-13.8-68.5-38.7-93.4c-25-25-58.1-38.7-93.4-38.7z"
    fill="currentColor"
  />
  <path 
    d="M578.9 546.7a8.03 8.03 0 0 0-11.3 0L501 613.3 410.7 523l66.7-66.7c3.1-3.1 3.1-8.2 0-11.3L441 408.6a8.03 8.03 0 0 0-11.3 0
       L363 475.3l-43-43a7.85 7.85 0 0 0-5.7-2.3c-2 0-4.1.8-5.7 2.3L206.8 534.2a199.45 199.45 0 0 0-58.6 140.4c-.2 39.5 11.2 79.1 34.3 113.1
       l-76.1 76.1a8.03 8.03 0 0 0 0 11.3l42.4 42.4c1.6 1.6 3.6 2.3 5.7 2.3s4.1-.8 5.7-2.3l76.1-76.1c33.7 22.9 72.9 34.3 112.1 34.3
       51.2 0 102.4-19.5 141.5-58.6l101.9-101.9c3.1-3.1 3.1-8.2 0-11.3l-43-43 66.7-66.7c3.1-3.1 3.1-8.2 0-11.3l-36.6-36.2z
       M441.7 769.1a131.32 131.32 0 0 1-93.4 38.7c-35.3 0-68.4-13.7-93.4-38.7-24.9-24.9-38.7-58.1-38.7-93.4s13.7-68.4 38.7-93.4
       l59.4-59.4 186.8 186.8-59.4 59.4zm476-620.3l-42.4-42.4c-1.6-1.6-3.6-2.3-5.7-2.3s-4.1.8-5.7 2.3l-76.1 76.1a199.27 199.27 0 0 0-112.1-34.3
       c-51.2 0-102.4 19.5-141.5 58.6L432.3 308.7a8.03 8.03 0 0 0 0 11.3L704 591.7c1.6 1.6 3.6 2.3 5.7 2.3 2 0 4.1-.8 5.7-2.3
       l101.9-101.9c68.9-69 77-175.7 24.3-253.5l76.1-76.1c3.1-3.2 3.1-8.3 0-11.4zM769.1 441.7l-59.4 59.4-186.8-186.8 59.4-59.4
       c24.9-24.9 58.1-38.7 93.4-38.7s68.4 13.7 93.4 38.7c24.9 24.9 38.7 58.1 38.7 93.4s-13.8 68.4-38.7 93.4z"
    fill="currentColor"
  />
</symbol>


  <symbol id="icon-db" viewBox="0 0 24 24" fill="none">
    <path 
      d="M21 5C21 6.65685 16.9706 8 12 8C7.02944 8 3 6.65685 3 5
         M21 5C21 3.34315 16.9706 2 12 2C7.02944 2 3 3.34315 3 5
         M21 5V19C21 20.66 17 22 12 22C7 22 3 20.66 3 19V5
         M21 9.72021C21 11.3802 17 12.7202 12 12.7202C7 12.7202 3 11.3802 3 9.72021
         M21 14.44C21 16.1 17 17.44 12 17.44C7 17.44 3 16.1 3 14.44"
      stroke="currentColor" 
      stroke-width="2" 
      stroke-linecap="round" 
      stroke-linejoin="round"
    />
  </symbol>

  <symbol id="icon-dbconnect" viewBox="0 0 20 20" fill="currentColor">
    <path d="M13.11 4.36L9.87 7.6 8 5.73l3.24-3.24c.35-.34 1.05-.2 1.56.32.52.51.66 1.21.31 1.55zM5.11 6.13l.91-1.12 9.01 9.01-1.19.84c-.71.71-2.63 1.16-3.82 1.16H6.14L4.9 17.26c-.59.59-1.54.59-2.12 0-.59-.58-.59-1.53 0-2.12l1.24-1.24v-3.88c0-1.13.4-3.19 1.09-3.89zm7.26 3.97l3.24-3.24c.34-.35 1.04-.21 1.55.31.52.51.66 1.21.31 1.55l-3.24 3.25z"/>
  </symbol>


  <symbol id="icon-git" viewBox="0 0 16 16" fill="none">
    <path 
      d="M5.13984 4.72563C5.94742 4.3112 6.5 3.47013 6.5 2.5C6.5 1.11929 5.38071 0 4 0C2.61929 0 1.5 1.11929 1.5 2.5C1.5 3.52516 2.11705 4.4062 3 4.79198V11.208C2.11705 11.5938 1.5
       12.4748 1.5 13.5C1.5 14.8807 2.61929 16 4 16C5.38071 16 6.5 14.8807 6.5 13.5C6.5 12.4748 5.88295 11.5938 5 11.208V7.41421L7.08579 
       9.5H9.70802C10.0938 10.383 10.9748 11 12 11C13.3807 11 14.5 9.88071 14.5 8.5C14.5 7.11929 13.3807 6 12 6C10.9748 6 10.0938 6.61705 
       9.70802 7.5H7.91421L5.13984 4.72563Z" 
      fill="currentColor"
    />
  </symbol>

  <symbol id="icon-github" viewBox="0 0 24 24" fill="none">
    <path 
      d="M4.0744 2.9938C4.13263 1.96371 4.37869 1.51577 5.08432 1.15606C5.84357 0.768899 7.04106 0.949072 8.45014 1.66261C9.05706 1.97009 9.11886 1.97635 10.1825 1.83998C11.5963 1.65865 13.4164 1.65929 14.7213 1.84164C15.7081 1.97954 15.7729 1.97265 16.3813 1.66453C18.3814 0.651679 19.9605 0.71795 20.5323 1.8387C20.8177 2.39812 20.8707 3.84971 20.6494 5.04695C20.5267 5.71069 20.5397 5.79356 20.8353 6.22912C22.915 9.29385 21.4165 14.2616 17.8528 16.1155C17.5801 16.2574 17.3503 16.3452 17.163 16.4167C16.5879 16.6363 16.4133 16.703 16.6247 17.7138C16.7265 18.2 16.8491 19.4088 16.8973 20.4002C16.9844 22.1922 16.9831 22.2047 16.6688 22.5703C16.241 23.0676 15.6244 23.076 15.2066 22.5902C14.9341 22.2734 14.9075 22.1238 14.9075 20.9015C14.9075 19.0952 14.7095 17.8946 14.2417 16.8658C13.6854 15.6415 14.0978 15.185 15.37 14.9114C17.1383 14.531 18.5194 13.4397 19.2892 11.8146C20.0211 10.2698 20.1314 8.13501 18.8082 6.83668C18.4319 6.3895 18.4057 5.98446 18.6744 4.76309C18.7748 4.3066 18.859 3.71768 18.8615 3.45425C18.8653 3.03823 18.8274 2.97541 18.5719 2.97541C18.4102 2.97541 17.7924 3.21062 17.1992 3.49805L16.2524 3.95695C16.1663 3.99866 16.07 4.0147 15.975 4.0038C13.5675 3.72746 11.2799 3.72319 8.86062 4.00488C8.76526 4.01598 8.66853 3.99994 8.58215 3.95802L7.63585 3.49882C7.04259 3.21087 6.42482 2.97541 6.26317 2.97541C5.88941 2.97541 5.88379 3.25135 6.22447 4.89078C6.43258 5.89203 6.57262 6.11513 5.97101 6.91572C5.06925 8.11576 4.844 9.60592 5.32757 11.1716C5.93704 13.1446 7.4295 14.4775 9.52773 14.9222C10.7926 15.1903 11.1232 15.5401 10.6402 16.9905C10.26 18.1319 10.0196 18.4261 9.46707 18.4261C8.72365 18.4261 8.25796 17.7821 8.51424 17.1082C8.62712 16.8112 8.59354 16.7795 7.89711 16.5255C5.77117 15.7504 4.14514 14.0131 3.40172 11.7223C2.82711 9.95184 3.07994 7.64739 4.00175 6.25453C4.31561 5.78028 4.32047 5.74006 4.174 4.83217C4.09113 4.31822 4.04631 3.49103 4.0744 2.9938Z" 
      fill="currentColor"
    />
    <path 
      d="M3.33203 15.9454C3.02568 15.4859 2.40481 15.3617 1.94528 15.6681C1.48576 15.9744 1.36158 16.5953 1.66793 17.0548C1.8941 17.3941 2.16467 17.6728 2.39444 17.9025C2.4368 17.9449 2.47796 17.9858 2.51815 18.0257C2.71062 18.2169 2.88056 18.3857 3.05124 18.5861C3.42875 19.0292 3.80536 19.626 4.0194 20.6962C4.11474 21.1729 4.45739 21.4297 4.64725 21.5419C4.85315 21.6635 5.07812 21.7352 5.26325 21.7819C5.64196 21.8774 6.10169 21.927 6.53799 21.9559C7.01695 21.9877 7.53592 21.998 7.99999 22.0008C8.00033 22.5527 8.44791 23.0001 8.99998 23.0001C9.55227 23.0001 9.99998 22.5524 9.99998 22.0001V21.0001C9.99998 20.4478 9.55227 20.0001 8.99998 20.0001C8.90571 20.0001 8.80372 20.0004 8.69569 20.0008C8.10883 20.0026 7.34388 20.0049 6.67018 19.9603C6.34531 19.9388 6.07825 19.9083 5.88241 19.871C5.58083 18.6871 5.09362 17.8994 4.57373 17.2891C4.34391 17.0194 4.10593 16.7834 3.91236 16.5914C3.87612 16.5555 3.84144 16.5211 3.80865 16.4883C3.5853 16.265 3.4392 16.1062 3.33203 15.9454Z" 
      fill="currentColor"
    />
  </symbol>






</svg>
